{
    "asset" : {
        "generator" : "Khronos glTF Blender I/O v1.7.33",
        "version" : "2.0"
    },
    "scene" : 0,
    "scenes" : [
        {
            "name" : "Scene",
            "nodes" : [
                0,
                1,
                2,
                3
            ]
        }
    ],
    "nodes" : [
        {
            "name" : "pr\u00edzemie_offi",
            "rotation" : [
                2.0677809970948147e-06,
                0.00028986562392674387,
                0,
                1
            ],
            "translation" : [
                -0.012992491014301777,
                0.0010806971695274115,
                -0.1719745248556137
            ]
        },
        {
            "mesh" : 0,
            "name" : "Planeg",
            "scale" : [
                0.0030546432826668024,
                0.0030546432826668024,
                0.0030546432826668024
            ],
            "translation" : [
                -0.12129322439432144,
                0,
                -0.3202868103981018
            ]
        },
        {
            "name" : "2_poschodie_offi",
            "translation" : [
                0.010624907910823822,
                0.006957411766052246,
                -0.16902588307857513
            ]
        },
        {
            "mesh" : 1,
            "name" : "Text",
            "rotation" : [
                0.7071068286895752,
                0,
                0,
                0.7071068286895752
            ],
            "scale" : [
                0.010308131575584412,
                0.010308131575584412,
                0.010308131575584412
            ],
            "translation" : [
                0.00046250224113464355,
                0.13773193955421448,
                0.2298121154308319
            ]
        }
    ],
    "materials" : [
        {
            "doubleSided" : true,
            "name" : "Material",
            "pbrMetallicRoughness" : {
                "metallicFactor" : 0,
                "roughnessFactor" : 0.5
            }
        },
        {
            "doubleSided" : true,
            "name" : "Material.001",
            "pbrMetallicRoughness" : {
                "baseColorFactor" : [
                    0.7454045414924622,
                    0.031895969063043594,
                    0.018500234931707382,
                    1
                ],
                "metallicFactor" : 0,
                "roughnessFactor" : 0.5
            }
        },
        {
            "doubleSided" : true,
            "name" : "Material.002",
            "pbrMetallicRoughness" : {
                "baseColorFactor" : [
                    0.34238243103027344,
                    0.34238243103027344,
                    0.34238243103027344,
                    1
                ],
                "metallicFactor" : 0,
                "roughnessFactor" : 0.5
            }
        }
    ],
    "meshes" : [
        {
            "name" : "Plane",
            "primitives" : [
                {
                    "attributes" : {
                        "POSITION" : 0,
                        "NORMAL" : 1,
                        "TEXCOORD_0" : 2,
                        "COLOR_0" : 3
                    },
                    "indices" : 4,
                    "material" : 0
                },
                {
                    "attributes" : {
                        "POSITION" : 5,
                        "NORMAL" : 6,
                        "TEXCOORD_0" : 7,
                        "COLOR_0" : 8
                    },
                    "indices" : 9,
                    "material" : 1
                }
            ]
        },
        {
            "name" : "Text",
            "primitives" : [
                {
                    "attributes" : {
                        "POSITION" : 10,
                        "NORMAL" : 11,
                        "TEXCOORD_0" : 12
                    },
                    "indices" : 13,
                    "material" : 2
                }
            ]
        }
    ],
    "accessors" : [
        {
            "bufferView" : 0,
            "componentType" : 5126,
            "count" : 3902,
            "max" : [
                100.00178527832031,
                47.55726623535156,
                180.11328125
            ],
            "min" : [
                -21.447065353393555,
                14.673832893371582,
                103.46290588378906
            ],
            "type" : "VEC3"
        },
        {
            "bufferView" : 1,
            "componentType" : 5126,
            "count" : 3902,
            "type" : "VEC3"
        },
        {
            "bufferView" : 2,
            "componentType" : 5126,
            "count" : 3902,
            "type" : "VEC2"
        },
        {
            "bufferView" : 3,
            "componentType" : 5123,
            "count" : 3902,
            "normalized" : true,
            "type" : "VEC4"
        },
        {
            "bufferView" : 4,
            "componentType" : 5123,
            "count" : 7356,
            "type" : "SCALAR"
        },
        {
            "bufferView" : 5,
            "componentType" : 5126,
            "count" : 206,
            "max" : [
                100.00178527832031,
                47.55726623535156,
                180.11328125
            ],
            "min" : [
                -21.447065353393555,
                14.673832893371582,
                103.5073471069336
            ],
            "type" : "VEC3"
        },
        {
            "bufferView" : 6,
            "componentType" : 5126,
            "count" : 206,
            "type" : "VEC3"
        },
        {
            "bufferView" : 7,
            "componentType" : 5126,
            "count" : 206,
            "type" : "VEC2"
        },
        {
            "bufferView" : 8,
            "componentType" : 5123,
            "count" : 206,
            "normalized" : true,
            "type" : "VEC4"
        },
        {
            "bufferView" : 9,
            "componentType" : 5123,
            "count" : 348,
            "type" : "SCALAR"
        },
        {
            "bufferView" : 10,
            "componentType" : 5126,
            "count" : 1168,
            "max" : [
                2.9070003032684326,
                0,
                0.30900001525878906
            ],
            "min" : [
                -2.9290003776550293,
                -0.38285428285598755,
                -0.5740000009536743
            ],
            "type" : "VEC3"
        },
        {
            "bufferView" : 11,
            "componentType" : 5126,
            "count" : 1168,
            "type" : "VEC3"
        },
        {
            "bufferView" : 12,
            "componentType" : 5126,
            "count" : 1168,
            "type" : "VEC2"
        },
        {
            "bufferView" : 13,
            "componentType" : 5123,
            "count" : 2220,
            "type" : "SCALAR"
        }
    ],
    "bufferViews" : [
        {
            "buffer" : 0,
            "byteLength" : 46824,
            "byteOffset" : 0
        },
        {
            "buffer" : 0,
            "byteLength" : 46824,
            "byteOffset" : 46824
        },
        {
            "buffer" : 0,
            "byteLength" : 31216,
            "byteOffset" : 93648
        },
        {
            "buffer" : 0,
            "byteLength" : 31216,
            "byteOffset" : 124864
        },
        {
            "buffer" : 0,
            "byteLength" : 14712,
            "byteOffset" : 156080
        },
        {
            "buffer" : 0,
            "byteLength" : 2472,
            "byteOffset" : 170792
        },
        {
            "buffer" : 0,
            "byteLength" : 2472,
            "byteOffset" : 173264
        },
        {
            "buffer" : 0,
            "byteLength" : 1648,
            "byteOffset" : 175736
        },
        {
            "buffer" : 0,
            "byteLength" : 1648,
            "byteOffset" : 177384
        },
        {
            "buffer" : 0,
            "byteLength" : 696,
            "byteOffset" : 179032
        },
        {
            "buffer" : 0,
            "byteLength" : 14016,
            "byteOffset" : 179728
        },
        {
            "buffer" : 0,
            "byteLength" : 14016,
            "byteOffset" : 193744
        },
        {
            "buffer" : 0,
            "byteLength" : 9344,
            "byteOffset" : 207760
        },
        {
            "buffer" : 0,
            "byteLength" : 4440,
            "byteOffset" : 217104
        }
    ],
    "buffers" : [
        {
            "byteLength" : 221544,
            "uri" : "data:application/octet-stream;base64,"
        }
    ]
}
