{
    "asset" : {
        "generator" : "Khronos glTF Blender I/O v1.7.33",
        "version" : "2.0"
    },
    "scene" : 0,
    "scenes" : [
        {
            "name" : "Scene",
            "nodes" : [
                0,
                1
            ]
        }
    ],
    "nodes" : [
        {
            "mesh" : 0,
            "name" : "cesty",
            "rotation" : [
                0,
                0.027443034574389458,
                0,
                0.9996234774589539
            ],
            "scale" : [
                0.0552520751953125,
                0.0552520751953125,
                0.0552520751953125
            ],
            "translation" : [
                0.4511696696281433,
                0,
                -0.3125922977924347
            ]
        },
        {
            "mesh" : 1,
            "name" : "Plane.002",
            "scale" : [
                0.08780056238174438,
                0.08780056238174438,
                0.08780056238174438
            ],
            "translation" : [
                -1.5651413202285767,
                -0.0013169124722480774,
                0.66314297914505
            ]
        }
    ],
    "materials" : [
        {
            "doubleSided" : true,
            "name" : "Material.003",
            "pbrMetallicRoughness" : {
                "baseColorFactor" : [
                    0.1523246169090271,
                    0.12834970653057098,
                    0.14042328298091888,
                    1
                ],
                "metallicFactor" : 0,
                "roughnessFactor" : 0.5
            }
        },
        {
            "doubleSided" : true,
            "name" : "Material.001",
            "pbrMetallicRoughness" : {
                "baseColorFactor" : [
                    0.8000000715255737,
                    0.23703913390636444,
                    0.10644920915365219,
                    1
                ],
                "metallicFactor" : 0,
                "roughnessFactor" : 0.4000000059604645
            }
        }
    ],
    "meshes" : [
        {
            "name" : "Plane.003",
            "primitives" : [
                {
                    "attributes" : {
                        "POSITION" : 0,
                        "NORMAL" : 1,
                        "TEXCOORD_0" : 2
                    },
                    "indices" : 3,
                    "material" : 0
                }
            ]
        },
        {
            "name" : "Plane.004",
            "primitives" : [
                {
                    "attributes" : {
                        "POSITION" : 4,
                        "NORMAL" : 5,
                        "TEXCOORD_0" : 6
                    },
                    "indices" : 7,
                    "material" : 1
                }
            ]
        }
    ],
    "accessors" : [
        {
            "bufferView" : 0,
            "componentType" : 5126,
            "count" : 106,
            "max" : [
                63.3104133605957,
                0,
                52.94744873046875
            ],
            "min" : [
                -82.38341522216797,
                0,
                -73.05113983154297
            ],
            "type" : "VEC3"
        },
        {
            "bufferView" : 1,
            "componentType" : 5126,
            "count" : 106,
            "type" : "VEC3"
        },
        {
            "bufferView" : 2,
            "componentType" : 5126,
            "count" : 106,
            "type" : "VEC2"
        },
        {
            "bufferView" : 3,
            "componentType" : 5123,
            "count" : 264,
            "type" : "SCALAR"
        },
        {
            "bufferView" : 4,
            "componentType" : 5126,
            "count" : 5344,
            "max" : [
                50.02872848510742,
                6.308287620544434,
                17.51470375061035
            ],
            "min" : [
                -20.48781967163086,
                -0.038926366716623306,
                -43.18124771118164
            ],
            "type" : "VEC3"
        },
        {
            "bufferView" : 5,
            "componentType" : 5126,
            "count" : 5344,
            "type" : "VEC3"
        },
        {
            "bufferView" : 6,
            "componentType" : 5126,
            "count" : 5344,
            "type" : "VEC2"
        },
        {
            "bufferView" : 7,
            "componentType" : 5123,
            "count" : 9369,
            "type" : "SCALAR"
        }
    ],
    "bufferViews" : [
        {
            "buffer" : 0,
            "byteLength" : 1272,
            "byteOffset" : 0
        },
        {
            "buffer" : 0,
            "byteLength" : 1272,
            "byteOffset" : 1272
        },
        {
            "buffer" : 0,
            "byteLength" : 848,
            "byteOffset" : 2544
        },
        {
            "buffer" : 0,
            "byteLength" : 528,
            "byteOffset" : 3392
        },
        {
            "buffer" : 0,
            "byteLength" : 64128,
            "byteOffset" : 3920
        },
        {
            "buffer" : 0,
            "byteLength" : 64128,
            "byteOffset" : 68048
        },
        {
            "buffer" : 0,
            "byteLength" : 42752,
            "byteOffset" : 132176
        },
        {
            "buffer" : 0,
            "byteLength" : 18738,
            "byteOffset" : 174928
        }
    ],
    "buffers" : [
        {
            "byteLength" : 193668,
            "uri" : "data:application/octet-stream;base64,"
        }
    ]
}
