{
    "asset" : {
        "generator" : "Khronos glTF Blender I/O v1.7.33",
        "version" : "2.0"
    },
    "scene" : 0,
    "scenes" : [
        {
            "name" : "Scene",
            "nodes" : [
                0
            ]
        }
    ],
    "nodes" : [
        {
            "mesh" : 0,
            "name" : "Plane",
            "scale" : [
                0.0030122906900942326,
                0.0030122906900942326,
                0.010865709744393826
            ],
            "translation" : [
                -0.11882337182760239,
                0,
                -0.2338109165430069
            ]
        }
    ],
    "meshes" : [
        {
            "name" : "Plane",
            "primitives" : [
                {
                    "attributes" : {
                        "POSITION" : 0,
                        "NORMAL" : 1,
                        "TEXCOORD_0" : 2
                    },
                    "indices" : 3
                }
            ]
        }
    ],
    "accessors" : [
        {
            "bufferView" : 0,
            "componentType" : 5126,
            "count" : 28429,
            "max" : [
                305.62176513671875,
                23.569366455078125,
                42.76200485229492
            ],
            "min" : [
                -229.40184020996094,
                -0.009829466231167316,
                -33.187477111816406
            ],
            "type" : "VEC3"
        },
        {
            "bufferView" : 1,
            "componentType" : 5126,
            "count" : 28429,
            "type" : "VEC3"
        },
        {
            "bufferView" : 2,
            "componentType" : 5126,
            "count" : 28429,
            "type" : "VEC2"
        },
        {
            "bufferView" : 3,
            "componentType" : 5123,
            "count" : 64890,
            "type" : "SCALAR"
        }
    ],
    "bufferViews" : [
        {
            "buffer" : 0,
            "byteLength" : 341148,
            "byteOffset" : 0
        },
        {
            "buffer" : 0,
            "byteLength" : 341148,
            "byteOffset" : 341148
        },
        {
            "buffer" : 0,
            "byteLength" : 227432,
            "byteOffset" : 682296
        },
        {
            "buffer" : 0,
            "byteLength" : 129780,
            "byteOffset" : 909728
        }
    ],
    "buffers" : [
        {
            "byteLength" : 1039508,
            "uri" : "data:application/octet-stream;base64,"
        }
    ]
}
