{
    "asset" : {
        "generator" : "Khronos glTF Blender I/O v1.7.33",
        "version" : "2.0"
    },
    "scene" : 0,
    "scenes" : [
        {
            "name" : "Scene",
            "nodes" : [
                0,
                1
            ]
        }
    ],
    "nodes" : [
        {
            "name" : "katastral.podorys",
            "rotation" : [
                -0.02608993649482727,
                -0.9994227290153503,
                -0.021751899272203445,
                0.0005771839059889317
            ],
            "translation" : [
                -0.03733036667108536,
                0,
                -0.05154130607843399
            ]
        },
        {
            "mesh" : 0,
            "name" : "Plane",
            "scale" : [
                0.0033427949529141188,
                0.0033427949529141188,
                0.0033427949529141188
            ],
            "translation" : [
                0.04684971645474434,
                -0.0065565104596316814,
                -0.0004436895251274109
            ]
        }
    ],
    "meshes" : [
        {
            "name" : "Plane",
            "primitives" : [
                {
                    "attributes" : {
                        "POSITION" : 0,
                        "NORMAL" : 1,
                        "TEXCOORD_0" : 2
                    },
                    "indices" : 3
                }
            ]
        }
    ],
    "accessors" : [
        {
            "bufferView" : 0,
            "componentType" : 5126,
            "count" : 3281,
            "max" : [
                150.8960418701172,
                17.758718490600586,
                60.910945892333984
            ],
            "min" : [
                -180.6812286376953,
                4.986230373382568,
                -110.80119323730469
            ],
            "type" : "VEC3"
        },
        {
            "bufferView" : 1,
            "componentType" : 5126,
            "count" : 3281,
            "type" : "VEC3"
        },
        {
            "bufferView" : 2,
            "componentType" : 5126,
            "count" : 3281,
            "type" : "VEC2"
        },
        {
            "bufferView" : 3,
            "componentType" : 5123,
            "count" : 5223,
            "type" : "SCALAR"
        }
    ],
    "bufferViews" : [
        {
            "buffer" : 0,
            "byteLength" : 39372,
            "byteOffset" : 0
        },
        {
            "buffer" : 0,
            "byteLength" : 39372,
            "byteOffset" : 39372
        },
        {
            "buffer" : 0,
            "byteLength" : 26248,
            "byteOffset" : 78744
        },
        {
            "buffer" : 0,
            "byteLength" : 10446,
            "byteOffset" : 104992
        }
    ],
    "buffers" : [
        {
            "byteLength" : 115440,
            "uri" : "data:application/octet-stream;base64,"
        }
    ]
}
