{
    "asset" : {
        "generator" : "Khronos glTF Blender I/O v1.7.33",
        "version" : "2.0"
    },
    "scene" : 0,
    "scenes" : [
        {
            "name" : "Scene",
            "nodes" : [
                0,
                1
            ]
        }
    ],
    "nodes" : [
        {
            "name" : "pr\u00edzemie_offi",
            "rotation" : [
                2.0677809970948147e-06,
                0.00028986562392674387,
                0,
                1
            ],
            "translation" : [
                -0.012992491014301777,
                0.0010806971695274115,
                -0.1719745248556137
            ]
        },
        {
            "mesh" : 0,
            "name" : "Plane",
            "scale" : [
                0.0030546432826668024,
                0.0030546432826668024,
                0.0030546432826668024
            ],
            "translation" : [
                -0.12129322439432144,
                0,
                -0.3202868103981018
            ]
        }
    ],
    "meshes" : [
        {
            "name" : "Plane",
            "primitives" : [
                {
                    "attributes" : {
                        "POSITION" : 0,
                        "NORMAL" : 1,
                        "TEXCOORD_0" : 2,
                        "COLOR_0" : 3
                    },
                    "indices" : 4
                }
            ]
        }
    ],
    "accessors" : [
        {
            "bufferView" : 0,
            "componentType" : 5126,
            "count" : 50647,
            "max" : [
                301.71832275390625,
                21.933822631835938,
                181.4120635986328
            ],
            "min" : [
                -225.60137939453125,
                -3.4108684062957764,
                -88.56029510498047
            ],
            "type" : "VEC3"
        },
        {
            "bufferView" : 1,
            "componentType" : 5126,
            "count" : 50647,
            "type" : "VEC3"
        },
        {
            "bufferView" : 2,
            "componentType" : 5126,
            "count" : 50647,
            "type" : "VEC2"
        },
        {
            "bufferView" : 3,
            "componentType" : 5123,
            "count" : 50647,
            "normalized" : true,
            "type" : "VEC4"
        },
        {
            "bufferView" : 4,
            "componentType" : 5123,
            "count" : 193488,
            "type" : "SCALAR"
        }
    ],
    "bufferViews" : [
        {
            "buffer" : 0,
            "byteLength" : 607764,
            "byteOffset" : 0
        },
        {
            "buffer" : 0,
            "byteLength" : 607764,
            "byteOffset" : 607764
        },
        {
            "buffer" : 0,
            "byteLength" : 405176,
            "byteOffset" : 1215528
        },
        {
            "buffer" : 0,
            "byteLength" : 405176,
            "byteOffset" : 1620704
        },
        {
            "buffer" : 0,
            "byteLength" : 386976,
            "byteOffset" : 2025880
        }
    ],
    "buffers" : [
        {
            "byteLength" : 2412856,
            "uri" : "data:application/octet-stream;base64,"
        }
    ]
}
