{
    "asset" : {
        "generator" : "Khronos glTF Blender I/O v1.7.33",
        "version" : "2.0"
    },
    "scene" : 0,
    "scenes" : [
        {
            "name" : "Scene",
            "nodes" : [
                0
            ]
        }
    ],
    "nodes" : [
        {
            "mesh" : 0,
            "name" : "prv\u00e9_poschodie",
            "scale" : [
                21.600019454956055,
                21.600019454956055,
                21.600019454956055
            ],
            "translation" : [
                0.009800409898161888,
                0.023135803639888763,
                0.15141823887825012
            ]
        }
    ],
    "materials" : [
        {
            "alphaMode" : "BLEND",
            "doubleSided" : true,
            "name" : "prv\u00e9_poschodie",
            "pbrMetallicRoughness" : {
                "baseColorTexture" : {
                    "index" : 0
                },
                "metallicFactor" : 0,
                "roughnessFactor" : 0.5
            }
        }
    ],
    "meshes" : [
        {
            "name" : "prv\u00e9_poschodie",
            "primitives" : [
                {
                    "attributes" : {
                        "POSITION" : 0,
                        "NORMAL" : 1,
                        "TEXCOORD_0" : 2
                    },
                    "indices" : 3,
                    "material" : 0
                }
            ]
        }
    ],
    "textures" : [
        {
            "sampler" : 0,
            "source" : 0
        }
    ],
    "images" : [
        {
            "bufferView" : 4,
            "mimeType" : "image/png",
            "name" : "prv\u00e9_poschodie.png",
            "uri" : "../prv%C3%A9_poschodie.png"
        }
    ],
    "accessors" : [
        {
            "bufferView" : 0,
            "componentType" : 5126,
            "count" : 2563,
            "max" : [
                0.2779586911201477,
                0.048003990203142166,
                0.24115648865699768
            ],
            "min" : [
                -0.3014810383319855,
                0.01300398912280798,
                -0.008937820792198181
            ],
            "type" : "VEC3"
        },
        {
            "bufferView" : 1,
            "componentType" : 5126,
            "count" : 2563,
            "type" : "VEC3"
        },
        {
            "bufferView" : 2,
            "componentType" : 5126,
            "count" : 2563,
            "type" : "VEC2"
        },
        {
            "bufferView" : 3,
            "componentType" : 5123,
            "count" : 4524,
            "type" : "SCALAR"
        }
    ],
    "bufferViews" : [
        {
            "buffer" : 0,
            "byteLength" : 30756,
            "byteOffset" : 0
        },
        {
            "buffer" : 0,
            "byteLength" : 30756,
            "byteOffset" : 30756
        },
        {
            "buffer" : 0,
            "byteLength" : 20504,
            "byteOffset" : 61512
        },
        {
            "buffer" : 0,
            "byteLength" : 9048,
            "byteOffset" : 82016
        },
        {
            "buffer" : 0,
            "byteLength" : 90,
            "byteOffset" : 91064
        }
    ],
    "samplers" : [
        {
            "magFilter" : 9729,
            "minFilter" : 9987,
            "wrapS" : 33071,
            "wrapT" : 33071
        }
    ],
    "buffers" : [
        {
            "byteLength" : 91156,
            "uri" : "data:application/octet-stream;base64,"
        }
    ]
}
