{
    "asset" : {
        "generator" : "Khronos glTF Blender I/O v1.7.33",
        "version" : "2.0"
    },
    "scene" : 0,
    "scenes" : [
        {
            "name" : "Scene",
            "nodes" : [
                0,
                1
            ]
        }
    ],
    "nodes" : [
        {
            "name" : "pr\u00edzemie_offi",
            "rotation" : [
                2.0677809970948147e-06,
                0.00028986562392674387,
                0,
                1
            ],
            "translation" : [
                -0.012992491014301777,
                0.0010806971695274115,
                -0.1719745248556137
            ]
        },
        {
            "mesh" : 0,
            "name" : "Plane",
            "scale" : [
                0.0030546432826668024,
                0.0030546432826668024,
                0.0030546432826668024
            ],
            "translation" : [
                -0.12129322439432144,
                0,
                -0.3202868103981018
            ]
        }
    ],
    "materials" : [
        {
            "doubleSided" : true,
            "name" : "Material",
            "pbrMetallicRoughness" : {
                "metallicFactor" : 0,
                "roughnessFactor" : 0.5
            }
        },
        {
            "doubleSided" : true,
            "name" : "Material.001",
            "pbrMetallicRoughness" : {
                "baseColorFactor" : [
                    0.7454045414924622,
                    0.031895969063043594,
                    0.018500234931707382,
                    1
                ],
                "metallicFactor" : 0,
                "roughnessFactor" : 0.5
            }
        }
    ],
    "meshes" : [
        {
            "name" : "Plane",
            "primitives" : [
                {
                    "attributes" : {
                        "POSITION" : 0,
                        "NORMAL" : 1,
                        "TEXCOORD_0" : 2,
                        "COLOR_0" : 3
                    },
                    "indices" : 4,
                    "material" : 0
                },
                {
                    "attributes" : {
                        "POSITION" : 5,
                        "NORMAL" : 6,
                        "TEXCOORD_0" : 7,
                        "COLOR_0" : 8
                    },
                    "indices" : 9,
                    "material" : 1
                }
            ]
        }
    ],
    "accessors" : [
        {
            "bufferView" : 0,
            "componentType" : 5126,
            "count" : 23053,
            "max" : [
                301.7173156738281,
                21.933822631835938,
                180.51260375976562
            ],
            "min" : [
                -225.60240173339844,
                -0.029959170147776604,
                -88.56010437011719
            ],
            "type" : "VEC3"
        },
        {
            "bufferView" : 1,
            "componentType" : 5126,
            "count" : 23053,
            "type" : "VEC3"
        },
        {
            "bufferView" : 2,
            "componentType" : 5126,
            "count" : 23053,
            "type" : "VEC2"
        },
        {
            "bufferView" : 3,
            "componentType" : 5123,
            "count" : 23053,
            "normalized" : true,
            "type" : "VEC4"
        },
        {
            "bufferView" : 4,
            "componentType" : 5123,
            "count" : 38328,
            "type" : "SCALAR"
        },
        {
            "bufferView" : 5,
            "componentType" : 5126,
            "count" : 3080,
            "max" : [
                301.71832275390625,
                21.933822631835938,
                180.51260375976562
            ],
            "min" : [
                -225.60240173339844,
                0,
                -88.56029510498047
            ],
            "type" : "VEC3"
        },
        {
            "bufferView" : 6,
            "componentType" : 5126,
            "count" : 3080,
            "type" : "VEC3"
        },
        {
            "bufferView" : 7,
            "componentType" : 5126,
            "count" : 3080,
            "type" : "VEC2"
        },
        {
            "bufferView" : 8,
            "componentType" : 5123,
            "count" : 3080,
            "normalized" : true,
            "type" : "VEC4"
        },
        {
            "bufferView" : 9,
            "componentType" : 5123,
            "count" : 4932,
            "type" : "SCALAR"
        }
    ],
    "bufferViews" : [
        {
            "buffer" : 0,
            "byteLength" : 276636,
            "byteOffset" : 0
        },
        {
            "buffer" : 0,
            "byteLength" : 276636,
            "byteOffset" : 276636
        },
        {
            "buffer" : 0,
            "byteLength" : 184424,
            "byteOffset" : 553272
        },
        {
            "buffer" : 0,
            "byteLength" : 184424,
            "byteOffset" : 737696
        },
        {
            "buffer" : 0,
            "byteLength" : 76656,
            "byteOffset" : 922120
        },
        {
            "buffer" : 0,
            "byteLength" : 36960,
            "byteOffset" : 998776
        },
        {
            "buffer" : 0,
            "byteLength" : 36960,
            "byteOffset" : 1035736
        },
        {
            "buffer" : 0,
            "byteLength" : 24640,
            "byteOffset" : 1072696
        },
        {
            "buffer" : 0,
            "byteLength" : 24640,
            "byteOffset" : 1097336
        },
        {
            "buffer" : 0,
            "byteLength" : 9864,
            "byteOffset" : 1121976
        }
    ],
    "buffers" : [
        {
            "byteLength" : 1131840,
            "uri" : "data:application/octet-stream;base64,"
        }
    ]
}
