{
    "asset" : {
        "generator" : "Khronos glTF Blender I/O v1.7.33",
        "version" : "2.0"
    },
    "scene" : 0,
    "scenes" : [
        {
            "name" : "Scene",
            "nodes" : [
                0
            ]
        }
    ],
    "nodes" : [
        {
            "mesh" : 0,
            "name" : "Poschodie",
            "scale" : [
                21.600000381469727,
                21.600000381469727,
                21.600000381469727
            ],
            "translation" : [
                -0.3004635274410248,
                0.36009079217910767,
                2.8340797424316406
            ]
        }
    ],
    "materials" : [
        {
            "alphaMode" : "BLEND",
            "doubleSided" : true,
            "name" : "Poschodie",
            "pbrMetallicRoughness" : {
                "baseColorTexture" : {
                    "index" : 0
                },
                "metallicFactor" : 0,
                "roughnessFactor" : 0.5
            }
        }
    ],
    "meshes" : [
        {
            "name" : "Poschodie",
            "primitives" : [
                {
                    "attributes" : {
                        "POSITION" : 0,
                        "NORMAL" : 1,
                        "TEXCOORD_0" : 2
                    },
                    "indices" : 3,
                    "material" : 0
                }
            ]
        }
    ],
    "textures" : [
        {
            "sampler" : 0,
            "source" : 0
        }
    ],
    "images" : [
        {
            "bufferView" : 4,
            "mimeType" : "image/png",
            "name" : "Poschodie"
        }
    ],
    "accessors" : [
        {
            "bufferView" : 0,
            "componentType" : 5126,
            "count" : 2178,
            "max" : [
                0.26536938548088074,
                0.03500000014901161,
                0.12540702521800995
            ],
            "min" : [
                -0.2621331214904785,
                0,
                -0.12697884440422058
            ],
            "type" : "VEC3"
        },
        {
            "bufferView" : 1,
            "componentType" : 5126,
            "count" : 2178,
            "type" : "VEC3"
        },
        {
            "bufferView" : 2,
            "componentType" : 5126,
            "count" : 2178,
            "type" : "VEC2"
        },
        {
            "bufferView" : 3,
            "componentType" : 5123,
            "count" : 3912,
            "type" : "SCALAR"
        }
    ],
    "bufferViews" : [
        {
            "buffer" : 0,
            "byteLength" : 26136,
            "byteOffset" : 0
        },
        {
            "buffer" : 0,
            "byteLength" : 26136,
            "byteOffset" : 26136
        },
        {
            "buffer" : 0,
            "byteLength" : 17424,
            "byteOffset" : 52272
        },
        {
            "buffer" : 0,
            "byteLength" : 7824,
            "byteOffset" : 69696
        },
        {
            "buffer" : 0,
            "byteLength" : 30003,
            "byteOffset" : 77520
        }
    ],
    "samplers" : [
        {
            "magFilter" : 9729,
            "minFilter" : 9987,
            "wrapS" : 33071,
            "wrapT" : 33071
        }
    ],
    "buffers" : [
        {
            "byteLength" : 107524,
            "uri" : "data:application/octet-stream;base64,"
        }
    ]
}
