{
    "asset" : {
        "generator" : "Khronos glTF Blender I/O v1.7.33",
        "version" : "2.0"
    },
    "scene" : 0,
    "scenes" : [
        {
            "name" : "Scene",
            "nodes" : [
                0,
                1,
                2
            ]
        }
    ],
    "nodes" : [
        {
            "name" : "pr\u00edzemie_offi",
            "rotation" : [
                2.0677809970948147e-06,
                0.00028986562392674387,
                0,
                1
            ],
            "translation" : [
                -0.012992491014301777,
                0.0010806971695274115,
                -0.1719745248556137
            ]
        },
        {
            "mesh" : 0,
            "name" : "Planeg",
            "scale" : [
                0.0030546432826668024,
                0.0030546432826668024,
                0.0030546432826668024
            ],
            "translation" : [
                -0.12129322439432144,
                0,
                -0.3202868103981018
            ]
        },
        {
            "name" : "2_poschodie_offi",
            "translation" : [
                0.010624907910823822,
                0.006957411766052246,
                -0.16902588307857513
            ]
        }
    ],
    "materials" : [
        {
            "doubleSided" : true,
            "name" : "Material",
            "pbrMetallicRoughness" : {
                "metallicFactor" : 0,
                "roughnessFactor" : 0.5
            }
        },
        {
            "doubleSided" : true,
            "name" : "Material.001",
            "pbrMetallicRoughness" : {
                "baseColorFactor" : [
                    0.7454045414924622,
                    0.031895969063043594,
                    0.018500234931707382,
                    1
                ],
                "metallicFactor" : 0,
                "roughnessFactor" : 0.5
            }
        }
    ],
    "meshes" : [
        {
            "name" : "Plane",
            "primitives" : [
                {
                    "attributes" : {
                        "POSITION" : 0,
                        "NORMAL" : 1,
                        "TEXCOORD_0" : 2,
                        "COLOR_0" : 3
                    },
                    "indices" : 4,
                    "material" : 0
                },
                {
                    "attributes" : {
                        "POSITION" : 5,
                        "NORMAL" : 6,
                        "TEXCOORD_0" : 7,
                        "COLOR_0" : 8
                    },
                    "indices" : 9,
                    "material" : 1
                }
            ]
        }
    ],
    "accessors" : [
        {
            "bufferView" : 0,
            "componentType" : 5126,
            "count" : 13277,
            "max" : [
                301.71832275390625,
                29.195493698120117,
                180.11328125
            ],
            "min" : [
                -225.60137939453125,
                1.579013466835022,
                -88.56029510498047
            ],
            "type" : "VEC3"
        },
        {
            "bufferView" : 1,
            "componentType" : 5126,
            "count" : 13277,
            "type" : "VEC3"
        },
        {
            "bufferView" : 2,
            "componentType" : 5126,
            "count" : 13277,
            "type" : "VEC2"
        },
        {
            "bufferView" : 3,
            "componentType" : 5123,
            "count" : 13277,
            "normalized" : true,
            "type" : "VEC4"
        },
        {
            "bufferView" : 4,
            "componentType" : 5123,
            "count" : 22383,
            "type" : "SCALAR"
        },
        {
            "bufferView" : 5,
            "componentType" : 5126,
            "count" : 222,
            "max" : [
                100.00178527832031,
                29.13597297668457,
                180.11328125
            ],
            "min" : [
                -175.74734497070312,
                1.579013466835022,
                -49.40379333496094
            ],
            "type" : "VEC3"
        },
        {
            "bufferView" : 6,
            "componentType" : 5126,
            "count" : 222,
            "type" : "VEC3"
        },
        {
            "bufferView" : 7,
            "componentType" : 5126,
            "count" : 222,
            "type" : "VEC2"
        },
        {
            "bufferView" : 8,
            "componentType" : 5123,
            "count" : 222,
            "normalized" : true,
            "type" : "VEC4"
        },
        {
            "bufferView" : 9,
            "componentType" : 5123,
            "count" : 420,
            "type" : "SCALAR"
        }
    ],
    "bufferViews" : [
        {
            "buffer" : 0,
            "byteLength" : 159324,
            "byteOffset" : 0
        },
        {
            "buffer" : 0,
            "byteLength" : 159324,
            "byteOffset" : 159324
        },
        {
            "buffer" : 0,
            "byteLength" : 106216,
            "byteOffset" : 318648
        },
        {
            "buffer" : 0,
            "byteLength" : 106216,
            "byteOffset" : 424864
        },
        {
            "buffer" : 0,
            "byteLength" : 44766,
            "byteOffset" : 531080
        },
        {
            "buffer" : 0,
            "byteLength" : 2664,
            "byteOffset" : 575848
        },
        {
            "buffer" : 0,
            "byteLength" : 2664,
            "byteOffset" : 578512
        },
        {
            "buffer" : 0,
            "byteLength" : 1776,
            "byteOffset" : 581176
        },
        {
            "buffer" : 0,
            "byteLength" : 1776,
            "byteOffset" : 582952
        },
        {
            "buffer" : 0,
            "byteLength" : 840,
            "byteOffset" : 584728
        }
    ],
    "buffers" : [
        {
            "byteLength" : 585568,
            "uri" : "data:application/octet-stream;base64,"
        }
    ]
}
